<svg width="15" height="15" viewBox="0 0 15 15" fill="none" xmlns="http://www.w3.org/2000/svg">
<path d="M14.9968 10.625C14.9968 13.625 12.2718 15 7.54684 15C2.79684 15 0.0968381 13.625 0.0968381 10.625C0.0968381 6.225 14.9968 6.225 14.9968 10.625Z" fill="#E7A74F"/>
<path d="M14.9468 8.55C14.9468 11.55 12.2468 12.925 7.52184 12.925C2.82184 12.925 0.0968381 11.55 0.0968381 8.55C0.121838 4.175 14.9468 4.175 14.9468 8.55Z" fill="#BA8443"/>
<path d="M0.0968381 8.625C0.0968381 7.375 1.57184 5.65 7.54684 5.65C13.5218 5.65 14.9968 7.4 14.9968 8.625C14.9968 10.9 12.8968 12.55 7.54684 12.55C2.19684 12.55 0.0968381 10.9 0.0968381 8.625Z" fill="#826046"/>
<path d="M0.246838 7.325C0.246838 6.075 1.69684 4.35 7.54684 4.35C13.3968 4.35 14.8468 6.1 14.8468 7.325C14.8468 9.6 12.7968 11.25 7.54684 11.25C2.29684 11.25 0.246838 9.6 0.246838 7.325Z" fill="#68472C"/>
<path d="M0.296838 5.7C0.646838 4.95 1.57184 4.9 4.57184 6.175C7.57184 7.45 8.14684 8.125 7.79684 8.9C7.14684 10.275 5.37184 11.3 2.67184 10.15C-0.028162 9 -0.378162 7.1 0.296838 5.7Z" fill="#EF4D3C"/>
<path d="M0.546838 4.85C0.896838 4.1 1.82184 4.05 4.82184 5.325C7.82184 6.6 8.39684 7.275 8.04684 8.05C7.39684 9.425 5.62184 10.45 2.92184 9.3C0.221838 8.15 -0.128162 6.225 0.546838 4.85Z" fill="#D33B23"/>
<path d="M6.82184 8.125C6.62184 7.325 7.32184 6.75 10.5468 6.05C13.7718 5.35 14.6468 5.55 14.8468 6.375C15.2218 7.85 14.4718 9.675 11.5718 10.3C8.69684 10.925 7.17184 9.6 6.82184 8.125Z" fill="#EF4D3C"/>
<path d="M6.49684 7.325C6.29684 6.525 6.99684 5.95 10.2218 5.25C13.4468 4.55 14.3218 4.75 14.5218 5.575C14.8968 7.05 14.1468 8.875 11.2468 9.5C8.37184 10.125 6.87184 8.8 6.49684 7.325Z" fill="#D33B23"/>
<path d="M1.92184 7.225L6.92184 12.025L11.8218 7.225H1.92184Z" fill="#FFE62E"/>
<path d="M14.6718 5.975C14.6718 5.975 14.8968 6.825 14.6718 7.075C14.4718 7.3 13.8468 7.05 13.5718 7.25C13.3218 7.425 13.3968 8.1 13.0968 8.25C12.8218 8.4 12.2968 7.975 11.9968 8.1C11.7218 8.2 11.6218 8.875 11.3218 8.975C11.0218 9.05 10.5718 8.55 10.2718 8.6C9.97184 8.65 9.77184 9.3 9.44684 9.35C9.14684 9.4 8.77184 8.825 8.44684 8.85C8.14684 8.875 7.84684 9.475 7.52184 9.475C7.19684 9.475 6.92184 8.85 6.59684 8.85C6.27184 8.825 5.92184 9.4 5.59684 9.35C5.27184 9.3 5.07184 8.675 4.77184 8.6C4.44684 8.525 4.02184 9.05 3.72184 8.975C3.42184 8.875 3.32184 8.225 3.04684 8.1C2.74684 7.975 2.19684 8.4 1.94684 8.25C1.64684 8.1 1.72184 7.425 1.47184 7.25C1.19684 7.05 0.571838 7.3 0.371838 7.075C0.146838 6.825 0.371838 5.975 0.371838 5.975H14.6718Z" fill="#8CC63E"/>
<path d="M14.9968 5.35C14.9968 6.975 11.6718 7.775 7.54684 7.775C3.42184 7.775 0.0968381 6.975 0.0968381 5.35C0.0968381 2.4 3.42184 0 7.54684 0C11.6718 0 14.9968 2.4 14.9968 5.35Z" fill="#E7A74F"/>
<path d="M3.57184 3.1L3.17184 3.475L2.79684 3.1L3.17184 2.725L3.57184 3.1ZM5.42184 2.5L5.04684 2.875L4.67184 2.5L5.04684 2.125L5.42184 2.5ZM6.49684 4.2L6.09684 4.575L5.72184 4.2L6.09684 3.825L6.49684 4.2ZM7.79684 2.85L7.54684 3.1L7.29684 2.85L7.54684 2.6L7.79684 2.85ZM12.4718 3.825L12.2218 4.075L11.9718 3.825L12.2218 3.575L12.4718 3.825ZM14.0218 4.075L13.7718 4.325L13.5218 4.075L13.7718 3.825L14.0218 4.075ZM11.0968 2.25L10.8468 2.5L10.5968 2.25L10.8468 2L11.0968 2.25ZM3.47184 1.925L3.22184 2.175L2.97184 1.925L3.22184 1.675L3.47184 1.925ZM2.12184 3.1L1.87184 3.35L1.62184 3.1L1.87184 2.85L2.12184 3.1ZM3.69684 4.775L3.44684 5.025L3.17184 4.775L3.44684 4.525L3.69684 4.775ZM6.62184 0.925L6.37184 1.175L6.09684 0.925L6.37184 0.675L6.62184 0.925ZM8.99684 0.675L8.74684 0.925L8.49684 0.675L8.74684 0.425L8.99684 0.675ZM5.04684 1.175L4.79684 1.425L4.54684 1.175L4.79684 0.925L5.04684 1.175ZM12.2218 1.775L11.9718 2.025L11.7218 1.775L11.9718 1.525L12.2218 1.775ZM9.49684 4.925L9.12184 5.3L8.74684 4.925L9.12184 4.55L9.49684 4.925ZM8.89684 3L8.52184 3.375L8.14684 3L8.52184 2.625L8.89684 3ZM10.2968 1.55L9.92184 1.925L9.54684 1.55L9.92184 1.175L10.2968 1.55ZM11.3968 3.175L11.0218 3.55L10.6218 3.175L11.0218 2.8L11.3968 3.175ZM12.9968 2.625L12.6218 3L12.2218 2.625L12.6218 2.25L12.9968 2.625ZM11.7718 4.825L11.3968 5.2L11.0218 4.825L11.3968 4.45L11.7718 4.825ZM2.62184 4.175L2.24684 4.55L1.87184 4.175L2.24684 3.8L2.62184 4.175Z" fill="#FFC17A"/>
</svg>
