<?xml version="1.0" encoding="UTF-8"?><svg id="Layer_2" xmlns="http://www.w3.org/2000/svg" width="40.1588" height="51.673" viewBox="0 0 40.1588 51.673"><defs><style>.cls-1{fill:none;stroke:#ffa550;stroke-miterlimit:10;stroke-width:2px;}</style></defs><g id="Layer_2-2"><g id="Layer_2-2"><g id="Layer_1-2"><path class="cls-1" d="M37.2916,28.0045c0-7.4254-7.5959-13.4448-16.9657-13.4448S3.36,20.5791,3.36,28.0045h34.0173"/><line class="cls-1" x1="3.5313" y1="31.1436" x2="37.2059" y2="31.1436"/><path class="cls-1" d="M13.985,11.0146s-4.1986-2.9878-.5998-4.8211c0,0,3.3417-1.426-.0857-3.8705,0,0-.9426-.6111-.3427-1.9013"/><path class="cls-1" d="M19.6403,11.0146s-4.1986-2.9878-.5998-4.8211c0,0,3.3418-1.426-.0857-3.8705,0,0-.9426-.6111-.3427-1.9013"/><path class="cls-1" d="M25.2955,11.0146s-4.1986-2.9878-.5998-4.8211c0,0,3.3418-1.426-.0857-3.8705,0,0-.9426-.6111-.3427-1.9013"/><polygon class="cls-1" points="1.5783 42.786 11.1469 50.4217 15.7103 47.1823 5.8473 39.1995 1.5783 42.786"/><path class="cls-1" d="M20.3627,41.695h8.6165c1.551,0,1.551-1.6253,1.551-1.6253.3446-1.8961-2.4012-1.7096-2.4012-1.7096l-5.3536.0089c-4.2151-3.9466-9.4509-1.8906-10.7917-1.0815-.1749.1055-.659.4126-.659.4126l-3.753,3.0682"/><path class="cls-1" d="M30.5525,39.5866l2.2518-2.3574s1.0638-.8615,1.5284-1.2021c1.0483-.7683,3.3443-1.4191,4.8188-.1664.1723.8126-2.6583,4.3937-7.4148,9.6943H13.4858"/></g></g></g></svg>